<?xml version="1.0" encoding="UTF-8"?>
<svg width="28px" height="28px" viewBox="0 0 28 28" version="1.1" xmlns="http://www.w3.org/2000/svg" xmlns:xlink="http://www.w3.org/1999/xlink">
    <title>Folder Star</title>
    <g stroke="none" stroke-width="1" fill="none" fill-rule="evenodd" stroke-linecap="round" stroke-linejoin="round">
        <g transform="translate(-758.000000, -749.000000)" stroke="#DB0032" stroke-width="1.12853337">
            <g transform="translate(759.000000, 750.000000)">
                <path d="M22.5932382,10.179371 L22.5932382,4.53670416 C22.5932382,3.91343239 22.0879766,3.40817079 21.4647048,3.40817079 L10.312538,3.40817079 C9.88520108,3.40794258 9.49464869,3.16635928 9.30362914,2.78409183 L8.2337795,0.646649623 C8.04275994,0.264382178 7.65220755,0.0227988774 7.22487066,0.0225706675 L1.15110404,0.0225706675 C0.527832269,0.0225706675 0.0225706675,0.527832269 0.0225706675,1.15110404 L0.0225706675,18.0791047 C0.0225706675,18.7023764 0.527832269,19.207638 1.15110404,19.207638 L9.05083766,19.207638" id="Path"></path>
                <path d="M20.0043826,12.9217071 L21.7411955,16.9505713 L25.1211529,16.9505713 C25.4707675,16.9373524 25.7910855,17.144921 25.92185,17.4694295 C26.0526145,17.7939379 25.9657058,18.1656034 25.7046047,18.3984796 L22.7704179,21.0121629 L24.395506,24.750994 C24.5417424,25.1016376 24.4481217,25.5064872 24.1627921,25.7573319 C23.8774626,26.0081767 23.4639555,26.0491637 23.1349342,25.8592137 L19.207638,23.6461598 L15.2803419,25.8592137 C14.9513205,26.0491637 14.5378135,26.0081767 14.2524839,25.7573319 C13.9671544,25.5064872 13.8735337,25.1016376 14.0197701,24.750994 L15.6448582,21.0121629 L12.7106714,18.3984796 C12.4487506,18.1665381 12.3607919,17.7950492 12.4908998,17.4702857 C12.6210077,17.1455222 12.9411249,16.9375181 13.2907375,16.9505713 L16.6763377,16.9505713 L18.4154076,12.9217071 C18.5730099,12.629712 18.8780825,12.4476994 19.2098951,12.4476994 C19.5417077,12.4476994 19.8467803,12.629712 20.0043826,12.9217071 Z" id="Path"></path>
            </g>
        </g>
    </g>
</svg>
